<?xml version="1.0" encoding="UTF-8" standalone="no"?>
<!DOCTYPE svg PUBLIC "-//W3C//DTD SVG 1.1//EN" "http://www.w3.org/Graphics/SVG/1.1/DTD/svg11.dtd">
<svg xmlns="http://www.w3.org/2000/svg" xmlns:xl="http://www.w3.org/1999/xlink" xmlns:dc="http://purl.org/dc/elements/1.1/" version="1.1" viewBox="27.846457 5.669291 457.5433 389.6693" width="457.5433" height="389.6693">
  <defs>
    <filter id="Shadow" filterUnits="userSpaceOnUse" x="-17.907874" y="-33.297638">
      <feGaussianBlur in="SourceAlpha" result="blur" stdDeviation="1.308"/>
      <feOffset in="blur" result="offset" dx="0" dy="2"/>
      <feFlood flood-color="black" flood-opacity=".5" result="flood"/>
      <feComposite in="flood" in2="offset" operator="in" result="color"/>
      <feMerge>
        <feMergeNode in="color"/>
        <feMergeNode in="SourceGraphic"/>
      </feMerge>
    </filter>
  </defs>
  <g id="Canvas_1" fill-opacity="1" fill="none" stroke-dasharray="none" stroke="none" stroke-opacity="1">
    <title>Canvas 1</title>
    <g id="Canvas_1_Layer_1">
      <title>Layer 1</title>
      <g id="Graphic_236">
        <text transform="translate(164.7246 10.669291)" fill="#657b83">
          <tspan font-family="Helvetica" font-size="16" fill="#657b83" x="13.384766" y="15">BGP Dynamic Routing</tspan>
          <tspan font-family="Helvetica" font-size="12" fill="#657b83" x="0" y="30">Example with floating IP addresses</tspan>
        </text>
      </g>
      <g id="Graphic_238">
        <circle cx="42.519685" cy="354.3307" r="8.50395054676997" fill="#268bd2"/>
      </g>
      <g id="Graphic_239">
        <text transform="translate(56.02362 342.32283)" fill="#657b83">
          <tspan font-family="Helvetica" font-size="10" fill="#657b83" x="0" y="10">Self-service network 1</tspan>
          <tspan font-family="Helvetica" font-size="8" fill="#657b83" x="0" y="20">192.0.2.0/25</tspan>
        </text>
      </g>
      <g id="Graphic_240">
        <circle cx="42.519685" cy="325.98425" r="8.50395054676996" fill="#2aa198"/>
      </g>
      <g id="Graphic_241">
        <text transform="translate(56.02362 319.64567)" fill="#657b83">
          <tspan font-family="Helvetica" font-size="10" fill="#657b83" x="0" y="10">External networks</tspan>
        </text>
      </g>
      <g id="Graphic_338" filter="url(#Shadow)">
        <path d="M 223.43307 56.69291 L 286.80315 56.69291 C 291.22142 56.69291 294.80315 60.274635 294.80315 64.69291 L 294.80315 196.09448 C 294.80315 200.51276 291.22142 204.09448 286.80315 204.09448 L 223.43307 204.09448 C 219.0148 204.09448 215.43307 200.51276 215.43307 196.09448 L 215.43307 64.69291 C 215.43307 60.274635 219.0148 56.69291 223.43307 56.69291 Z" fill="#fdf6e3"/>
        <path d="M 223.43307 56.69291 L 286.80315 56.69291 C 291.22142 56.69291 294.80315 60.274635 294.80315 64.69291 L 294.80315 196.09448 C 294.80315 200.51276 291.22142 204.09448 286.80315 204.09448 L 223.43307 204.09448 C 219.0148 204.09448 215.43307 200.51276 215.43307 196.09448 L 215.43307 64.69291 C 215.43307 60.274635 219.0148 56.69291 223.43307 56.69291 Z" stroke="#657b83" stroke-linecap="round" stroke-linejoin="round" stroke-width="1"/>
        <text transform="translate(220.43307 61.69291)" fill="#657b83">
          <tspan font-family="Helvetica" font-weight="bold" font-size="8" fill="#657b83" x="17.720196" y="8">L3 Agent</tspan>
        </text>
      </g>
      <g id="Graphic_379">
        <circle cx="184.25197" cy="325.98425" r="8.50395054676997" fill="#b58900"/>
      </g>
      <g id="Graphic_380">
        <text transform="translate(197.7559 312.99212)" fill="#657b83">
          <tspan font-family="Helvetica" font-size="10" fill="#657b83" x="0" y="10">Peering network</tspan>
          <tspan font-family="Helvetica" font-size="8" fill="#657b83" x="0" y="20">10.0.0.0/24</tspan>
        </text>
      </g>
      <g id="Graphic_381" filter="url(#Shadow)">
        <path d="M 59.02362 53.85827 L 142.23622 53.85827 C 146.6545 53.85827 150.23622 57.43999 150.23622 61.85827 L 150.23622 111.05512 C 150.23622 115.4734 146.6545 119.05512 142.23622 119.05512 L 59.02362 119.05512 C 54.605344 119.05512 51.02362 115.4734 51.02362 111.05512 L 51.02362 61.85827 C 51.02362 57.43999 54.605344 53.85827 59.02362 53.85827 Z" fill="#fdf6e3"/>
        <path d="M 59.02362 53.85827 L 142.23622 53.85827 C 146.6545 53.85827 150.23622 57.43999 150.23622 61.85827 L 150.23622 111.05512 C 150.23622 115.4734 146.6545 119.05512 142.23622 119.05512 L 59.02362 119.05512 C 54.605344 119.05512 51.02362 115.4734 51.02362 111.05512 L 51.02362 61.85827 C 51.02362 57.43999 54.605344 53.85827 59.02362 53.85827 Z" stroke="#657b83" stroke-linecap="round" stroke-linejoin="round" stroke-width="1"/>
        <text transform="translate(56.02362 58.85827)" fill="#657b83">
          <tspan font-family="Helvetica" font-weight="bold" font-size="8" fill="#657b83" x="23.71177" y="8">BGP Agent</tspan>
        </text>
      </g>
      <g id="Line_640">
        <line x1="100.62992" y1="256.53543" x2="255.1181" y2="279.2126" stroke="#2aa198" stroke-linecap="round" stroke-linejoin="round" stroke-width="2"/>
      </g>
      <g id="Graphic_206">
        <path d="M 227.8761 280.7351 C 215.96457 279.2126 220.71458 266.39575 239.71612 268.58268 C 241.47904 264.31965 263.57527 265.0116 263.43082 268.58268 C 277.28583 264.0152 294.9917 273.12264 283.11556 277.6901 C 297.36635 279.90453 282.93573 291.83556 271.24016 289.84252 C 270.30416 293.16444 249.39598 294.32693 247.56083 289.84252 C 235.72154 294.63165 211.03472 287.2681 227.8761 280.7351 Z" fill="#2aa198"/>
        <path d="M 227.8761 280.7351 C 215.96457 279.2126 220.71458 266.39575 239.71612 268.58268 C 241.47904 264.31965 263.57527 265.0116 263.43082 268.58268 C 277.28583 264.0152 294.9917 273.12264 283.11556 277.6901 C 297.36635 279.90453 282.93573 291.83556 271.24016 289.84252 C 270.30416 293.16444 249.39598 294.32693 247.56083 289.84252 C 235.72154 294.63165 211.03472 287.2681 227.8761 280.7351 Z" stroke="#657b83" stroke-linecap="round" stroke-linejoin="round" stroke-width="1"/>
        <text transform="translate(234.32283 271.2126)" fill="#fdf6e3">
          <tspan font-family="Helvetica" font-weight="bold" font-size="7" fill="#fdf6e3" x="6.983263" y="6">External</tspan>
          <tspan font-family="Helvetica" font-weight="bold" font-size="7" fill="#fdf6e3" x="5.040148" y="14">Networks</tspan>
        </text>
      </g>
      <g id="Graphic_642">
        <circle cx="184.25197" cy="354.3307" r="8.50395054676998" fill="#6c71c4"/>
      </g>
      <g id="Graphic_643">
        <text transform="translate(197.7559 342.32283)" fill="#657b83">
          <tspan font-family="Helvetica" font-size="10" fill="#657b83" x="0" y="10">Self-service network 2</tspan>
          <tspan font-family="Helvetica" font-size="8" fill="#657b83" x="0" y="20">192.0.2.128/25</tspan>
        </text>
      </g>
      <g id="Line_651">
        <path d="M 255.1181 99.2126 L 198.4252 99.2126 L 198.4252 167.2441 L 198.4252 240.94488 L 255.1181 240.94488" stroke="#859901" stroke-linecap="round" stroke-linejoin="round" stroke-width="2"/>
      </g>
      <g id="Line_653">
        <path d="M 226.77165 141.73228 L 198.4252 141.73228 L 198.4252 178.58268 L 198.4252 240.94488 L 255.1181 240.94488" stroke="#859901" stroke-linecap="round" stroke-linejoin="round" stroke-width="2"/>
      </g>
      <g id="Line_654">
        <path d="M 255.1181 181.41732 L 198.4252 181.41732 L 198.4252 240.94488 L 255.1181 240.94488" stroke="#859901" stroke-linecap="round" stroke-linejoin="round" stroke-width="2"/>
      </g>
      <g id="Line_655">
        <line x1="255.1181" y1="240.94488" x2="100.62992" y2="256.53543" stroke="#859901" stroke-linecap="round" stroke-linejoin="round" stroke-width="2"/>
      </g>
      <g id="Graphic_364">
        <path d="M 59.02362 223.937 L 142.23622 223.937 C 146.6545 223.937 150.23622 227.51873 150.23622 231.937 L 150.23622 281.13386 C 150.23622 285.55213 146.6545 289.13386 142.23622 289.13386 L 59.02362 289.13386 C 54.605344 289.13386 51.02362 285.55213 51.02362 281.13386 L 51.02362 231.937 C 51.02362 227.51873 54.605344 223.937 59.02362 223.937 Z" fill="#fdf6e3"/>
        <path d="M 59.02362 223.937 L 142.23622 223.937 C 146.6545 223.937 150.23622 227.51873 150.23622 231.937 L 150.23622 281.13386 C 150.23622 285.55213 146.6545 289.13386 142.23622 289.13386 L 59.02362 289.13386 C 54.605344 289.13386 51.02362 285.55213 51.02362 281.13386 L 51.02362 231.937 C 51.02362 227.51873 54.605344 223.937 59.02362 223.937 Z" stroke="#657b83" stroke-linecap="round" stroke-linejoin="round" stroke-width="1"/>
        <text transform="translate(56.02362 228.937)" fill="#657b83">
          <tspan font-family="Helvetica" font-weight="bold" font-size="8" fill="#657b83" x="14.377785" y="8">Provider Router</tspan>
        </text>
      </g>
      <g id="Graphic_652">
        <path d="M 227.8761 242.46737 C 215.96457 240.94488 220.71458 228.12803 239.71612 230.31496 C 241.47904 226.05194 263.57527 226.74387 263.43082 230.31496 C 277.28583 225.7475 294.9917 234.85493 283.11556 239.4224 C 297.36635 241.63682 282.93573 253.56784 271.24016 251.5748 C 270.30416 254.89672 249.39598 256.0592 247.56083 251.5748 C 235.72154 256.36394 211.03472 249.00038 227.8761 242.46737 Z" fill="#859901"/>
        <path d="M 227.8761 242.46737 C 215.96457 240.94488 220.71458 228.12803 239.71612 230.31496 C 241.47904 226.05194 263.57527 226.74387 263.43082 230.31496 C 277.28583 225.7475 294.9917 234.85493 283.11556 239.4224 C 297.36635 241.63682 282.93573 253.56784 271.24016 251.5748 C 270.30416 254.89672 249.39598 256.0592 247.56083 251.5748 C 235.72154 256.36394 211.03472 249.00038 227.8761 242.46737 Z" stroke="#657b83" stroke-linecap="round" stroke-linejoin="round" stroke-width="1"/>
        <text transform="translate(234.32283 232.94488)" fill="#fdf6e3">
          <tspan font-family="Helvetica" font-weight="bold" font-size="7" fill="#fdf6e3" x="6.5953236" y="6">Provider</tspan>
          <tspan font-family="Helvetica" font-weight="bold" font-size="7" fill="#fdf6e3" x="6.986681" y="14">Network</tspan>
        </text>
      </g>
      <g id="Line_656">
        <line x1="255.1181" y1="99.2126" x2="368.50393" y2="99.2126" stroke="#268bd2" stroke-linecap="round" stroke-linejoin="round" stroke-width="2"/>
      </g>
      <g id="Line_657">
        <line x1="255.1181" y1="141.73228" x2="368.50393" y2="141.73228" stroke="#6c71c4" stroke-linecap="round" stroke-linejoin="round" stroke-width="2"/>
      </g>
      <g id="Line_658">
        <line x1="255.1181" y1="181.41732" x2="368.50393" y2="181.41732" stroke="#d33682" stroke-linecap="round" stroke-linejoin="round" stroke-width="2"/>
      </g>
      <g id="Graphic_382" filter="url(#Shadow)">
        <path d="M 234.77165 85.03937 L 275.46457 85.03937 C 279.88284 85.03937 283.46457 88.62109 283.46457 93.03937 L 283.46457 105.38583 C 283.46457 109.8041 279.88284 113.38583 275.46457 113.38583 L 234.77165 113.38583 C 230.35337 113.38583 226.77165 109.8041 226.77165 105.38583 L 226.77165 93.03937 C 226.77165 88.62109 230.35337 85.03937 234.77165 85.03937 Z" fill="#268bd2"/>
        <path d="M 234.77165 85.03937 L 275.46457 85.03937 C 279.88284 85.03937 283.46457 88.62109 283.46457 93.03937 L 283.46457 105.38583 C 283.46457 109.8041 279.88284 113.38583 275.46457 113.38583 L 234.77165 113.38583 C 230.35337 113.38583 226.77165 109.8041 226.77165 105.38583 L 226.77165 93.03937 C 226.77165 88.62109 230.35337 85.03937 234.77165 85.03937 Z" stroke="#657b83" stroke-linecap="round" stroke-linejoin="round" stroke-width="1"/>
        <text transform="translate(231.77165 86.2126)" fill="#fdf6e3">
          <tspan font-family="Helvetica" font-weight="bold" font-size="8" fill="#fdf6e3" x="7.121847" y="8">Router 1</tspan>
          <tspan font-family="Helvetica" font-weight="bold" font-size="7" fill="#fdf6e3" x="5.048361" y="16">203.0.113.1</tspan>
          <tspan font-family="Helvetica" font-weight="bold" font-size="7" fill="#fdf6e3" x="8.750021" y="24">192.0.2.1</tspan>
        </text>
      </g>
      <g id="Graphic_644" filter="url(#Shadow)">
        <path d="M 234.77165 127.55905 L 275.46457 127.55905 C 279.88284 127.55905 283.46457 131.14078 283.46457 135.55905 L 283.46457 147.90551 C 283.46457 152.32379 279.88284 155.90551 275.46457 155.90551 L 234.77165 155.90551 C 230.35337 155.90551 226.77165 152.32379 226.77165 147.90551 L 226.77165 135.55905 C 226.77165 131.14078 230.35337 127.55905 234.77165 127.55905 Z" fill="#6c71c4"/>
        <path d="M 234.77165 127.55905 L 275.46457 127.55905 C 279.88284 127.55905 283.46457 131.14078 283.46457 135.55905 L 283.46457 147.90551 C 283.46457 152.32379 279.88284 155.90551 275.46457 155.90551 L 234.77165 155.90551 C 230.35337 155.90551 226.77165 152.32379 226.77165 147.90551 L 226.77165 135.55905 C 226.77165 131.14078 230.35337 127.55905 234.77165 127.55905 Z" stroke="#657b83" stroke-linecap="round" stroke-linejoin="round" stroke-width="1"/>
        <text transform="translate(231.77165 128.73228)" fill="#fdf6e3">
          <tspan font-family="Helvetica" font-weight="bold" font-size="8" fill="#fdf6e3" x="7.121847" y="8">Router 2</tspan>
          <tspan font-family="Helvetica" font-weight="bold" font-size="7" fill="#fdf6e3" x="5.048361" y="16">203.0.113.2</tspan>
          <tspan font-family="Helvetica" font-weight="bold" font-size="7" fill="#fdf6e3" x="4.8569546" y="24">192.0.2.129</tspan>
        </text>
      </g>
      <g id="Graphic_649" filter="url(#Shadow)">
        <path d="M 234.77165 167.2441 L 275.46457 167.2441 C 279.88284 167.2441 283.46457 170.82582 283.46457 175.2441 L 283.46457 187.59055 C 283.46457 192.00883 279.88284 195.59055 275.46457 195.59055 L 234.77165 195.59055 C 230.35337 195.59055 226.77165 192.00883 226.77165 187.59055 L 226.77165 175.2441 C 226.77165 170.82582 230.35337 167.2441 234.77165 167.2441 Z" fill="#d33682"/>
        <path d="M 234.77165 167.2441 L 275.46457 167.2441 C 279.88284 167.2441 283.46457 170.82582 283.46457 175.2441 L 283.46457 187.59055 C 283.46457 192.00883 279.88284 195.59055 275.46457 195.59055 L 234.77165 195.59055 C 230.35337 195.59055 226.77165 192.00883 226.77165 187.59055 L 226.77165 175.2441 C 226.77165 170.82582 230.35337 167.2441 234.77165 167.2441 Z" stroke="#657b83" stroke-linecap="round" stroke-linejoin="round" stroke-width="1"/>
        <text transform="translate(231.77165 168.41732)" fill="#fdf6e3">
          <tspan font-family="Helvetica" font-weight="bold" font-size="8" fill="#fdf6e3" x="7.121847" y="8">Router 3</tspan>
          <tspan font-family="Helvetica" font-weight="bold" font-size="7" fill="#fdf6e3" x="5.048361" y="16">203.0.113.3</tspan>
          <tspan font-family="Helvetica" font-weight="bold" font-size="7" fill="#fdf6e3" x="2.9104214" y="24">198.51.100.1</tspan>
        </text>
      </g>
      <g id="Graphic_659">
        <circle cx="325.98425" cy="325.98425" r="8.50395054676997" fill="#859901"/>
      </g>
      <g id="Graphic_660">
        <text transform="translate(339.4882 312.99212)" fill="#657b83">
          <tspan font-family="Helvetica" font-size="10" fill="#657b83" x="0" y="10">Provider network</tspan>
          <tspan font-family="Helvetica" font-size="8" fill="#657b83" x="0" y="20">203.0.113.0/24</tspan>
        </text>
      </g>
      <g id="Graphic_661">
        <circle cx="325.98425" cy="354.3307" r="8.50395054676998" fill="#d33682"/>
      </g>
      <g id="Graphic_662">
        <text transform="translate(339.4882 342.32283)" fill="#657b83">
          <tspan font-family="Helvetica" font-size="10" fill="#657b83" x="0" y="10">Self-service network 3</tspan>
          <tspan font-family="Helvetica" font-size="8" fill="#657b83" x="0" y="20">198.51.100.0/24</tspan>
        </text>
      </g>
      <g id="Line_633">
        <path d="M 102.04724 90.70866 L 36.850396 90.70866 L 37.604854 260.7874 L 99.2126 260.7874" stroke="#b58900" stroke-linecap="round" stroke-linejoin="round" stroke-width="2"/>
      </g>
      <g id="Graphic_667">
        <text transform="translate(45.4395 126.88976)" fill="#657b83">
          <tspan font-family="Helvetica" font-weight="bold" font-size="8" fill="#657b83" x="29.064453" y="8">Prefix Advertisements</tspan>
          <tspan font-family="Helvetica" font-weight="bold" font-size="8" fill="#657b83" x="0" y="18">192.0.2.0/25         next-hop 203.0.113.1</tspan>
          <tspan font-family="Helvetica" font-weight="bold" font-size="8" fill="#657b83" x="0" y="28">192.0.2.128/25     next-hop 203.0.113.2</tspan>
          <tspan font-family="Helvetica" font-weight="bold" font-size="8" fill="#657b83" x="0" y="38">203.0.113.101/32 next-hop 203.0.113.1</tspan>
          <tspan font-family="Helvetica" font-weight="bold" font-size="8" fill="#657b83" x="0" y="48">203.0.113.102/32 next-hop 203.0.113.2</tspan>
        </text>
      </g>
      <g id="Line_670">
        <line x1="453.5433" y1="99.2126" x2="368.50393" y2="99.2126" stroke="#268bd2" stroke-linecap="round" stroke-linejoin="round" stroke-width="2"/>
      </g>
      <g id="Line_671">
        <line x1="453.5433" y1="141.73228" x2="368.50393" y2="141.73228" stroke="#6c71c4" stroke-linecap="round" stroke-linejoin="round" stroke-width="2"/>
      </g>
      <g id="Line_672">
        <line x1="453.5433" y1="181.41732" x2="368.50393" y2="181.41732" stroke="#d33682" stroke-linecap="round" stroke-linejoin="round" stroke-width="2"/>
      </g>
      <g id="Graphic_347">
        <path d="M 341.2619 100.73509 C 329.3504 99.2126 334.1004 86.39575 353.10194 88.58268 C 354.86487 84.31965 376.9611 85.01159 376.81665 88.58268 C 390.67166 84.01521 408.37753 93.12265 396.5014 97.69011 C 410.75217 99.90453 396.32156 111.83556 384.626 109.84252 C 383.69 113.16444 362.7818 114.32693 360.94666 109.84252 C 349.10736 114.63165 324.42055 107.2681 341.2619 100.73509 Z" fill="#268bd2"/>
        <path d="M 341.2619 100.73509 C 329.3504 99.2126 334.1004 86.39575 353.10194 88.58268 C 354.86487 84.31965 376.9611 85.01159 376.81665 88.58268 C 390.67166 84.01521 408.37753 93.12265 396.5014 97.69011 C 410.75217 99.90453 396.32156 111.83556 384.626 109.84252 C 383.69 113.16444 362.7818 114.32693 360.94666 109.84252 C 349.10736 114.63165 324.42055 107.2681 341.2619 100.73509 Z" stroke="#657b83" stroke-linecap="round" stroke-linejoin="round" stroke-width="1"/>
        <text transform="translate(347.70866 91.2126)" fill="#fdf6e3">
          <tspan font-family="Helvetica" font-weight="bold" font-size="7" fill="#fdf6e3" x="1.1436634" y="6">Self-service</tspan>
          <tspan font-family="Helvetica" font-weight="bold" font-size="7" fill="#fdf6e3" x="4.0677357" y="14">Network 1</tspan>
        </text>
      </g>
      <g id="Graphic_641">
        <path d="M 341.2619 143.25477 C 329.3504 141.73228 334.1004 128.91543 353.10194 131.10236 C 354.86487 126.83934 376.9611 127.53127 376.81665 131.10236 C 390.67166 126.5349 408.37753 135.64233 396.5014 140.2098 C 410.75217 142.42422 396.32156 154.35524 384.626 152.3622 C 383.69 155.68413 362.7818 156.84661 360.94666 152.3622 C 349.10736 157.15134 324.42055 149.78778 341.2619 143.25477 Z" fill="#6c71c4"/>
        <path d="M 341.2619 143.25477 C 329.3504 141.73228 334.1004 128.91543 353.10194 131.10236 C 354.86487 126.83934 376.9611 127.53127 376.81665 131.10236 C 390.67166 126.5349 408.37753 135.64233 396.5014 140.2098 C 410.75217 142.42422 396.32156 154.35524 384.626 152.3622 C 383.69 155.68413 362.7818 156.84661 360.94666 152.3622 C 349.10736 157.15134 324.42055 149.78778 341.2619 143.25477 Z" stroke="#657b83" stroke-linecap="round" stroke-linejoin="round" stroke-width="1"/>
        <text transform="translate(347.70866 133.73228)" fill="#fdf6e3">
          <tspan font-family="Helvetica" font-weight="bold" font-size="7" fill="#fdf6e3" x="1.1436634" y="6">Self-service</tspan>
          <tspan font-family="Helvetica" font-weight="bold" font-size="7" fill="#fdf6e3" x="4.0677357" y="14">Network 2</tspan>
        </text>
      </g>
      <g id="Graphic_650">
        <path d="M 341.2619 182.9398 C 329.3504 181.41732 334.1004 168.60047 353.10194 170.7874 C 354.86487 166.52438 376.9611 167.21631 376.81665 170.7874 C 390.67166 166.21994 408.37753 175.32737 396.5014 179.89483 C 410.75217 182.10926 396.32156 194.04028 384.626 192.04724 C 383.69 195.36916 362.7818 196.53165 360.94666 192.04724 C 349.10736 196.83638 324.42055 189.47282 341.2619 182.9398 Z" fill="#d33682"/>
        <path d="M 341.2619 182.9398 C 329.3504 181.41732 334.1004 168.60047 353.10194 170.7874 C 354.86487 166.52438 376.9611 167.21631 376.81665 170.7874 C 390.67166 166.21994 408.37753 175.32737 396.5014 179.89483 C 410.75217 182.10926 396.32156 194.04028 384.626 192.04724 C 383.69 195.36916 362.7818 196.53165 360.94666 192.04724 C 349.10736 196.83638 324.42055 189.47282 341.2619 182.9398 Z" stroke="#657b83" stroke-linecap="round" stroke-linejoin="round" stroke-width="1"/>
        <text transform="translate(347.70866 173.41732)" fill="#fdf6e3">
          <tspan font-family="Helvetica" font-weight="bold" font-size="7" fill="#fdf6e3" x="1.1436634" y="6">Self-service</tspan>
          <tspan font-family="Helvetica" font-weight="bold" font-size="7" fill="#fdf6e3" x="4.0677357" y="14">Network 3</tspan>
        </text>
      </g>
      <g id="Graphic_428" filter="url(#Shadow)">
        <path d="M 433.19685 85.03937 L 473.88976 85.03937 C 478.30804 85.03937 481.88976 88.62109 481.88976 93.03937 L 481.88976 105.38583 C 481.88976 109.8041 478.30804 113.38583 473.88976 113.38583 L 433.19685 113.38583 C 428.77857 113.38583 425.19685 109.8041 425.19685 105.38583 L 425.19685 93.03937 C 425.19685 88.62109 428.77857 85.03937 433.19685 85.03937 Z" fill="#fdf6e3"/>
        <path d="M 433.19685 85.03937 L 473.88976 85.03937 C 478.30804 85.03937 481.88976 88.62109 481.88976 93.03937 L 481.88976 105.38583 C 481.88976 109.8041 478.30804 113.38583 473.88976 113.38583 L 433.19685 113.38583 C 428.77857 113.38583 425.19685 109.8041 425.19685 105.38583 L 425.19685 93.03937 C 425.19685 88.62109 428.77857 85.03937 433.19685 85.03937 Z" stroke="#657b83" stroke-linecap="round" stroke-linejoin="round" stroke-width="1"/>
        <text transform="translate(430.19685 90.2126)" fill="#657b83">
          <tspan font-family="Helvetica" font-weight="bold" font-size="8" fill="#657b83" x="3.7820034" y="8">Instance 1</tspan>
          <tspan font-family="Helvetica" font-weight="bold" font-size="7" fill="#657b83" x="1.1552944" y="16">203.0.113.101</tspan>
        </text>
      </g>
      <g id="Graphic_668" filter="url(#Shadow)">
        <path d="M 433.19685 127.55905 L 473.88976 127.55905 C 478.30804 127.55905 481.88976 131.14078 481.88976 135.55905 L 481.88976 147.90551 C 481.88976 152.32379 478.30804 155.90551 473.88976 155.90551 L 433.19685 155.90551 C 428.77857 155.90551 425.19685 152.32379 425.19685 147.90551 L 425.19685 135.55905 C 425.19685 131.14078 428.77857 127.55905 433.19685 127.55905 Z" fill="#fdf6e3"/>
        <path d="M 433.19685 127.55905 L 473.88976 127.55905 C 478.30804 127.55905 481.88976 131.14078 481.88976 135.55905 L 481.88976 147.90551 C 481.88976 152.32379 478.30804 155.90551 473.88976 155.90551 L 433.19685 155.90551 C 428.77857 155.90551 425.19685 152.32379 425.19685 147.90551 L 425.19685 135.55905 C 425.19685 131.14078 428.77857 127.55905 433.19685 127.55905 Z" stroke="#657b83" stroke-linecap="round" stroke-linejoin="round" stroke-width="1"/>
        <text transform="translate(430.19685 132.73228)" fill="#657b83">
          <tspan font-family="Helvetica" font-weight="bold" font-size="8" fill="#657b83" x="3.7820034" y="8">Instance 2</tspan>
          <tspan font-family="Helvetica" font-weight="bold" font-size="7" fill="#657b83" x="1.1552944" y="16">203.0.113.102</tspan>
        </text>
      </g>
      <g id="Graphic_669" filter="url(#Shadow)">
        <path d="M 433.19685 167.2441 L 473.88976 167.2441 C 478.30804 167.2441 481.88976 170.82582 481.88976 175.2441 L 481.88976 187.59055 C 481.88976 192.00883 478.30804 195.59055 473.88976 195.59055 L 433.19685 195.59055 C 428.77857 195.59055 425.19685 192.00883 425.19685 187.59055 L 425.19685 175.2441 C 425.19685 170.82582 428.77857 167.2441 433.19685 167.2441 Z" fill="#fdf6e3"/>
        <path d="M 433.19685 167.2441 L 473.88976 167.2441 C 478.30804 167.2441 481.88976 170.82582 481.88976 175.2441 L 481.88976 187.59055 C 481.88976 192.00883 478.30804 195.59055 473.88976 195.59055 L 433.19685 195.59055 C 428.77857 195.59055 425.19685 192.00883 425.19685 187.59055 L 425.19685 175.2441 C 425.19685 170.82582 428.77857 167.2441 433.19685 167.2441 Z" stroke="#657b83" stroke-linecap="round" stroke-linejoin="round" stroke-width="1"/>
        <text transform="translate(430.19685 172.41732)" fill="#657b83">
          <tspan font-family="Helvetica" font-weight="bold" font-size="8" fill="#657b83" x="3.7820034" y="8">Instance 3</tspan>
          <tspan font-family="Helvetica" font-weight="bold" font-size="7" fill="#657b83" x="1.1552944" y="16">203.0.113.103</tspan>
        </text>
      </g>
      <g id="Graphic_674">
        <path d="M 28.346457 374.17323 L 56.69291 374.17323 L 56.69291 391.1811 L 28.346457 391.1811 Z" stroke="#657b83" stroke-linecap="round" stroke-linejoin="round" stroke-dasharray="4.0,4.0" stroke-width="1"/>
      </g>
      <g id="Graphic_675">
        <text transform="translate(61.69291 376.3386)" fill="#657b83">
          <tspan font-family="Helvetica" font-size="10" fill="#657b83" x="0" y="10">Address scope</tspan>
        </text>
      </g>
      <g id="Graphic_632" filter="url(#Shadow)">
        <path d="M 73.19685 73.70079 L 130.89764 73.70079 C 135.31591 73.70079 138.89764 77.28251 138.89764 81.70079 L 138.89764 99.71654 C 138.89764 104.13481 135.31591 107.71654 130.89764 107.71654 L 73.19685 107.71654 C 68.778575 107.71654 65.19685 104.13481 65.19685 99.71654 L 65.19685 81.70079 C 65.19685 77.28251 68.778575 73.70079 73.19685 73.70079 Z" fill="#b58900"/>
        <path d="M 73.19685 73.70079 L 130.89764 73.70079 C 135.31591 73.70079 138.89764 77.28251 138.89764 81.70079 L 138.89764 99.71654 C 138.89764 104.13481 135.31591 107.71654 130.89764 107.71654 L 73.19685 107.71654 C 68.778575 107.71654 65.19685 104.13481 65.19685 99.71654 L 65.19685 81.70079 C 65.19685 77.28251 68.778575 73.70079 73.19685 73.70079 Z" stroke="#657b83" stroke-linecap="round" stroke-linejoin="round" stroke-width="1"/>
        <text transform="translate(70.19685 78.70866)" fill="#fdf6e3">
          <tspan font-family="Helvetica" font-weight="bold" font-size="7" fill="#fdf6e3" x="4.6177254" y="6">Peering Session</tspan>
          <tspan font-family="Helvetica" font-weight="bold" font-size="7" fill="#fdf6e3" x="18.229786" y="14">AS 1234</tspan>
          <tspan font-family="Helvetica" font-weight="bold" font-size="7" fill="#fdf6e3" x="19.20049" y="22">10.0.0.1</tspan>
        </text>
      </g>
      <g id="Graphic_663" filter="url(#Shadow)">
        <path d="M 70.36221 243.77953 L 128.06299 243.77953 C 132.48127 243.77953 136.06299 247.36125 136.06299 251.77953 L 136.06299 269.79528 C 136.06299 274.21355 132.48127 277.79528 128.06299 277.79528 L 70.36221 277.79528 C 65.94393 277.79528 62.36221 274.21355 62.36221 269.79528 L 62.36221 251.77953 C 62.36221 247.36125 65.94393 243.77953 70.36221 243.77953 Z" fill="#b58900"/>
        <path d="M 70.36221 243.77953 L 128.06299 243.77953 C 132.48127 243.77953 136.06299 247.36125 136.06299 251.77953 L 136.06299 269.79528 C 136.06299 274.21355 132.48127 277.79528 128.06299 277.79528 L 70.36221 277.79528 C 65.94393 277.79528 62.36221 274.21355 62.36221 269.79528 L 62.36221 251.77953 C 62.36221 247.36125 65.94393 243.77953 70.36221 243.77953 Z" stroke="#657b83" stroke-linecap="round" stroke-linejoin="round" stroke-width="1"/>
        <text transform="translate(67.36221 248.7874)" fill="#fdf6e3">
          <tspan font-family="Helvetica" font-weight="bold" font-size="7" fill="#fdf6e3" x="4.6177254" y="6">Peering Session</tspan>
          <tspan font-family="Helvetica" font-weight="bold" font-size="7" fill="#fdf6e3" x="18.229786" y="14">AS 4321</tspan>
          <tspan font-family="Helvetica" font-weight="bold" font-size="7" fill="#fdf6e3" x="19.20049" y="22">10.0.0.2</tspan>
        </text>
      </g>
      <g id="Graphic_673">
        <path d="M 229.10236 79.37008 L 400.18897 79.37008 C 404.60725 79.37008 408.18897 82.9518 408.18897 87.37008 L 408.18897 153.5748 C 408.18897 157.99308 404.60725 161.5748 400.18897 161.5748 L 229.10236 161.5748 C 224.68408 161.5748 221.10236 157.99308 221.10236 153.5748 L 221.10236 87.37008 C 221.10236 82.9518 224.68408 79.37008 229.10236 79.37008 Z" stroke="#657b83" stroke-linecap="round" stroke-linejoin="round" stroke-dasharray="4.0,4.0" stroke-width="1"/>
      </g>
    </g>
  </g>
</svg>
